<svg xmlns="http://www.w3.org/2000/svg" width="25" height="24.48" viewBox="0 0 25 24.48">
  <path id="_039-github" data-name="039-github" d="M12.5,5.329A12.557,12.557,0,0,0,8.55,29.787c.625.116.853-.272.853-.6,0-.3-.011-1.088-.017-2.134-3.477.758-4.211-1.683-4.211-1.683a3.314,3.314,0,0,0-1.388-1.836c-1.136-.778.084-.763.084-.763A2.625,2.625,0,0,1,5.786,24.06,2.657,2.657,0,0,0,9.425,25.1a2.679,2.679,0,0,1,.794-1.678c-2.775-.317-5.694-1.394-5.694-6.2a4.864,4.864,0,0,1,1.287-3.369,4.522,4.522,0,0,1,.122-3.32s1.05-.337,3.438,1.286a11.8,11.8,0,0,1,6.259,0c2.386-1.623,3.434-1.286,3.434-1.286a4.529,4.529,0,0,1,.125,3.32,4.855,4.855,0,0,1,1.284,3.369c0,4.82-2.922,5.881-5.706,6.192a3,3,0,0,1,.848,2.323c0,1.678-.016,3.031-.016,3.442,0,.336.225.727.859.6A12.558,12.558,0,0,0,12.5,5.329Z" transform="translate(0 -5.329)" fill="#333"/>
</svg>
