<svg xmlns="http://www.w3.org/2000/svg" width="107.875" height="75.09" viewBox="0 0 107.875 75.09" fill="#333">
  <g id="logo" transform="translate(-164 -213)">
    <g id="letter-o" transform="translate(181.26 213)">
      <path id="o-triangle" d="M827.281,703.058l26.44-26.421v52.88Z" transform="translate(-827.281 -665.532)"/>
      <path id="o-cercle" d="M37.545,75.09a37.843,37.843,0,0,1-7.575-.765A37.531,37.531,0,0,1,.763,45.111a37.911,37.911,0,0,1,0-15.133A37.531,37.531,0,0,1,29.978.763a37.911,37.911,0,0,1,15.133,0A37.531,37.531,0,0,1,74.327,29.978a37.909,37.909,0,0,1,0,15.133A37.531,37.531,0,0,1,45.111,74.327,37.82,37.82,0,0,1,37.545,75.09Zm-.152-57.734A20.038,20.038,0,1,0,57.431,37.393,20.038,20.038,0,0,0,37.393,17.356Z" transform="translate(15.525 0)"/>
    </g>
    <g id="letter-k" transform="translate(164 224.105)">
      <path id="k-top" d="M88.011,123.78,61.637,150.22l-.066-26.44Z" transform="translate(-61.571 -123.78)"/>
      <path id="k-bot" d="M88.01,150.22,61.636,123.78l-.066,26.44Z" transform="translate(-61.57 -97.34)"/>
    </g>
  </g>
</svg>
